<svg id="icon" xmlns="http://www.w3.org/2000/svg" viewBox="0 0 512 512"><defs><style>.cls-1{fill:#79c7e2;}.cls-2{fill:#b39edd;}.cls-3{fill:#ffca5f;}.cls-4{fill:#f7899e;}.cls-5{fill:#376782;}</style></defs><title>growth graph</title><rect class="cls-1" x="156.77" y="347.43" width="48.76" height="126.98"/><rect class="cls-2" x="36.91" y="403.4" width="48.76" height="71.01"/><rect class="cls-3" x="276.64" y="236.86" width="48.76" height="237.56"/><polygon class="cls-4" points="420.88 37.58 366.67 128.44 396.5 128.44 396.5 474.42 445.26 474.42 445.26 128.44 475.09 128.44 420.88 37.58"/><path class="cls-5" d="M425.58,34.78a5.46,5.46,0,0,0-9.39,0L362,125.64a5.47,5.47,0,0,0,4.69,8.27H391V164.3a5.47,5.47,0,0,0,10.94,0V128.44A5.47,5.47,0,0,0,396.5,123H376.31l44.57-74.71L465.46,123h-20.2a5.47,5.47,0,0,0-5.47,5.47V469H402v-241a5.47,5.47,0,0,0-10.94,0V474.42a5.47,5.47,0,0,0,5.47,5.47h48.76a5.47,5.47,0,0,0,5.47-5.47V133.91h24.36a5.47,5.47,0,0,0,4.7-8.27Z"/><path class="cls-5" d="M396.5,201.92a5.46,5.46,0,0,0,5.47-5.46v-2a5.47,5.47,0,0,0-10.94,0v2A5.46,5.46,0,0,0,396.5,201.92Z"/><path class="cls-5" d="M205.53,342H156.77a5.47,5.47,0,0,0-5.47,5.47v127a5.46,5.46,0,0,0,5.47,5.46h48.76a5.46,5.46,0,0,0,5.47-5.46v-127A5.47,5.47,0,0,0,205.53,342Zm-5.47,127H162.24v-116h37.82Z"/><path class="cls-5" d="M85.67,397.93H36.91a5.47,5.47,0,0,0-5.47,5.47v71a5.46,5.46,0,0,0,5.47,5.46H85.67a5.46,5.46,0,0,0,5.47-5.46v-71A5.47,5.47,0,0,0,85.67,397.93ZM80.2,469H42.38V408.87H80.2Z"/><path class="cls-5" d="M325.4,231.39H276.64a5.47,5.47,0,0,0-5.47,5.47V474.42a5.46,5.46,0,0,0,5.47,5.46H325.4a5.46,5.46,0,0,0,5.47-5.46V236.86A5.47,5.47,0,0,0,325.4,231.39ZM319.93,469H282.11V242.33h37.82Z"/></svg>